<?xml version="1.0" encoding="UTF-8"?>
<svg width="18px" height="18px" viewBox="0 0 18 18" version="1.1" xmlns="http://www.w3.org/2000/svg">
    <g stroke="none" stroke-width="1" fill="none" fill-rule="evenodd">
        <path d="M14.94,9.5 C14.92,7.5 16.32,6.3 16.42,6.22 C15.3,4.62 13.7,4.38 13.1,4.36 C11.74,4.2 10.42,5.3 9.72,5.3 C9,5.3 7.92,4.38 6.78,4.4 C5.24,4.42 3.8,5.3 2.96,6.66 C1.24,9.12 2.28,13.08 3.8,15.22 C4.66,16.42 5.68,17.76 6.96,17.72 C8.22,17.68 8.68,17 10.04,17 C11.38,17 11.8,17.72 13.12,17.7 C14.48,17.68 15.42,16.5 16.26,15.28 C17.26,13.86 17.66,12.48 17.68,12.42 C17.64,12.4 14.96,11.3 14.94,9.5 Z M12.32,3.5 C13.06,2.58 13.54,1.32 13.38,0.06 C12.34,0.1 11.04,0.74 10.28,1.66 C9.6,2.48 9.02,3.76 9.2,4.98 C10.34,5.06 11.58,4.42 12.32,3.5 Z" fill="#000000"></path>
    </g>
</svg> 