<?xml version="1.0" encoding="UTF-8"?>
<svg width="18px" height="18px" viewBox="0 0 18 18" version="1.1" xmlns="http://www.w3.org/2000/svg">
    <g stroke="none" stroke-width="1" fill="none" fill-rule="evenodd">
        <path d="M17.1,0 L0.9,0 C0.403,0 0,0.403 0,0.9 L0,17.1 C0,17.597 0.403,18 0.9,18 L9.6,18 L9.6,11.025 L7.2,11.025 L7.2,8.325 L9.6,8.325 L9.6,6.3 C9.6,3.915 10.95,2.7 13.05,2.7 C14.1,2.7 15.15,2.85 15.15,2.85 L15.15,5.4 L13.95,5.4 C12.75,5.4 12.45,6.075 12.45,6.75 L12.45,8.325 L15,8.325 L14.625,11.025 L12.45,11.025 L12.45,18 L17.1,18 C17.597,18 18,17.597 18,17.1 L18,0.9 C18,0.403 17.597,0 17.1,0" fill="#1877F2"></path>
    </g>
</svg> 